# xmcd CD database file
#
# Track frame offsets:
#	150
#	21012
#	34232
#	47870
#	65612
#	81557
#	92017
#	104875
#	117930
#	130615
#	145010
#	157265
#	170790
#	185505
#	197462
#	214352
#	229720
#	241892
#	252630
#	264190
#	270900
#	277772
#	290952
#	304327
#
# Disc length: 4223 seconds
#
# Revision: 3
# Processed by: cddbd v1.5PL3 Copyright (c) Steve Scherf et al.
# Submitted via: CDex 1.51
#
DISCID=6e107d18
DTITLE=Frank Sinatra - The Complete Reprise Studio Recordings - CD14
DYEAR=1995
DGENRE=Jazz
TTITLE0=All My Tomorrows
TTITLE1=Didn't We?
TTITLE2=A Day In The Life Of A Fool
TTITLE3=Yesterday
TTITLE4=If You Go Away
TTITLE5=Watch What Happens
TTITLE6=For Once In My Life
TTITLE7=Mrs. Robinson
TTITLE8=Hallelujah, I Love Her So
TTITLE9=I've Been To Town
TTITLE10=Empty Is
TTITLE11=The Single Man
TTITLE12=Lonesome Cities
TTITLE13=The Beautiful Strangers
TTITLE14=A Man Alone
TTITLE15=Love's Been Good To Me
TTITLE16=Out Beyond The Window
TTITLE17=Night
TTITLE18=Some Traveling Music
TTITLE19=From Promise To Promise
TTITLE20=A Man Alone (Reprise)
TTITLE21=In The Shadow Of The Moon
TTITLE22=Forget To Remember
TTITLE23=Goin' Out Of My Head
EXTD=YEAR: 1995
EXTT0=
EXTT1=
EXTT2=
EXTT3=
EXTT4=
EXTT5=
EXTT6=
EXTT7=
EXTT8=
EXTT9=
EXTT10=
EXTT11=
EXTT12=
EXTT13=
EXTT14=
EXTT15=
EXTT16=
EXTT17=
EXTT18=
EXTT19=
EXTT20=
EXTT21=
EXTT22=
EXTT23=
PLAYORDER=
